<?xml version="1.0" encoding="UTF-8"?>
<svg id="Layer_1" xmlns="http://www.w3.org/2000/svg" version="1.1" viewBox="0 0 364.89 268.89">
  <!-- Generator: Adobe Illustrator 29.7.1, SVG Export Plug-In . SVG Version: 2.1.1 Build 8)  -->
  <defs>
    <style>
      .st0, .st1 {
        fill: #f2f2f2;
      }

      .st1 {
        stroke: #f2f2f2;
        stroke-miterlimit: 10;
      }
    </style>
  </defs>
  <path class="st0" d="M358.76,205.26c-19.54-11.38-39.08-22.76-58.62-34.15-31.13-18.13-62.25-36.26-93.38-54.39-7.12-4.14-14.23-8.29-21.35-12.43-5.57-3.25-10.61,5.39-5.05,8.63,19.54,11.38,39.08,22.76,58.62,34.15,31.13,18.13,62.25,36.26,93.38,54.39,7.12,4.14,14.23,8.29,21.35,12.43,5.57,3.25,10.61-5.39,5.05-8.63h0Z"/>
  <g>
    <path class="st1" d="M133.54,202.38v-31.99h13.76c3.58,0,6.44.75,8.58,2.26s3.21,3.53,3.21,6.06c0,3.88-2.3,6.4-6.89,7.57,2.36.88,3.89,1.84,4.58,2.88s1.17,3.08,1.42,6.09c.3,3.59.9,5.97,1.8,7.12h-10.08c-.64-1.48-.96-3.34-.96-5.55l-.05-1.9-.05-2.39c0-3.69-1.48-5.53-4.45-5.53h-1.59v15.38h-9.28ZM142.82,184.36h1.88c3.52,0,5.27-1.84,5.27-5.51s-1.76-5.51-5.27-5.51h-1.88v11.02Z"/>
    <path class="st1" d="M173.17,170.39v31.99h-9.28v-31.99h9.28Z"/>
    <path class="st1" d="M202.12,170.39v31.99h-7.1l-13.36-20.25v20.25h-3.12v-31.99h5.88l14.58,21.87v-21.87h3.12Z"/>
    <path class="st1" d="M219.98,185.11h13.17v17.27h-2.95l-1.01-2.2c-2.58,1.83-5.31,2.74-8.18,2.74-4.73,0-8.41-1.42-11.03-4.25s-3.93-6.83-3.93-11.99,1.39-9.07,4.16-12.18,6.4-4.65,10.89-4.65c5.91,0,9.5,3.02,10.78,9.05l-4.36,1.99v-.77l-.07-1.73c-.3-3.77-2.04-5.65-5.23-5.65-2.34,0-3.95,1-4.8,3s-1.29,5.73-1.29,11.18c0,5.09.35,8.55,1.04,10.38s2.02,2.74,3.97,2.74c2.3,0,3.45-1.28,3.45-3.84v-7.88h-4.62v-3.21Z"/>
    <path class="st1" d="M98.79,226.47v15.91h-9.28v-31.99h9.28v12.87h7.57v-12.87h9.28v31.99h-9.28v-15.91h-7.57Z"/>
    <path class="st1" d="M135.73,210.39v20.58c0,8.08-2.84,12.12-8.53,12.12-2.52,0-4.65-.71-6.4-2.14s-2.62-3.17-2.62-5.21c0-1.22.25-2.76.75-4.62l3.4-.91c-.53,2.22-.8,3.82-.8,4.8,0,3.47,1.04,5.2,3.12,5.2,1.2,0,1.8-1.62,1.8-4.88v-24.94h9.28Z"/>
    <path class="st1" d="M167.75,209.81l-3.26,4.45c2.42,3.02,3.63,7.13,3.63,12.35,0,10.91-4.69,16.36-14.06,16.36-3.31,0-6.17-.83-8.58-2.48l-3.05,4.17-2.34-1.71,3.19-4.34c-2.41-2.81-3.61-6.9-3.61-12.26,0-10.94,4.66-16.41,13.97-16.41,3.5,0,6.38.83,8.65,2.48l3.16-4.34,2.3,1.71ZM157.78,218.45c-.61-3.83-1.98-5.74-4.1-5.74-1.66,0-2.78.91-3.38,2.72s-.89,5.23-.89,10.24c0,1.34.09,2.8.26,4.36l8.11-11.58ZM149.96,234.53c.58,3.78,1.96,5.67,4.15,5.67,2.84,0,4.27-4.12,4.27-12.35,0-1.77-.09-3.44-.28-5.02l-8.13,11.7Z"/>
    <path class="st1" d="M172.22,242.38v-31.99h13.76c3.58,0,6.44.75,8.58,2.26s3.21,3.53,3.21,6.06c0,3.88-2.3,6.4-6.89,7.57,2.36.88,3.89,1.84,4.58,2.88s1.17,3.08,1.42,6.09c.3,3.59.9,5.97,1.8,7.12h-10.08c-.64-1.48-.96-3.34-.96-5.55l-.05-1.9-.05-2.39c0-3.69-1.48-5.53-4.45-5.53h-1.59v15.38h-9.28ZM181.5,224.36h1.88c3.52,0,5.27-1.84,5.27-5.51s-1.76-5.51-5.27-5.51h-1.88v11.02Z"/>
    <path class="st1" d="M225.94,210.39v31.99h-7.1l-13.36-20.25v20.25h-3.12v-31.99h5.88l14.58,21.87v-21.87h3.12Z"/>
    <path class="st1" d="M252,210.39v3.21h-11.46v9.68h9.63v3.21h-9.63v12.68h13.41v3.21h-22.69v-31.99h20.74Z"/>
    <path class="st1" d="M279.31,210.39v3.21h-7.85v28.78h-9.84v-28.78h-7.9v-3.21h25.59Z"/>
  </g>
  <path class="st1" d="M189.54,112.15h-13.29V10.02c-.06-4.51,4.71-5.43,8.29-5,2.76,0,5,2.24,5,5v102.14Z"/>
  <path class="st0" d="M358.76,159.75c-19.54-11.38-39.08-22.76-58.62-34.15-31.13-18.13-62.25-36.26-93.38-54.39-7.12-4.14-14.23-8.29-21.35-12.43-5.57-3.25-10.61,5.39-5.05,8.63,19.54,11.38,39.08,22.76,58.62,34.15,31.13,18.13,62.25,36.26,93.38,54.39,7.12,4.14,14.23,8.29,21.35,12.43,5.57,3.25,10.61-5.39,5.05-8.63h0Z"/>
  <path class="st0" d="M359.93,107.84c-19.54-11.38-39.08-22.76-58.62-34.15-31.13-18.13-62.25-36.26-93.38-54.39-7.12-4.14-14.23-8.29-21.35-12.43-5.57-3.25-10.61,5.39-5.05,8.63,19.54,11.38,39.08,22.76,58.62,34.15l93.38,54.39c7.12,4.14,14.23,8.29,21.35,12.43,5.57,3.25,10.61-5.39,5.05-8.63h0Z"/>
  <path class="st0" d="M353.72,205.26c-25.26,14.71-50.51,29.42-75.77,44.13-3.64,2.12-7.27,4.24-10.91,6.35-5.56,3.24-.53,11.88,5.05,8.63,25.26-14.71,50.51-29.42,75.77-44.13,3.64-2.12,7.27-4.24,10.91-6.35,5.56-3.24.53-11.88-5.05-8.63h0Z"/>
  <path class="st0" d="M12.04,213.89c19.54-11.38,39.09-22.76,58.63-34.15,31.13-18.13,62.26-36.26,93.39-54.39,7.12-4.14,14.23-8.29,21.35-12.43,5.56-3.24.53-11.88-5.05-8.63-19.54,11.38-39.09,22.76-58.63,34.15-31.13,18.13-62.26,36.26-93.39,54.39-7.12,4.14-14.23,8.29-21.35,12.43-5.56,3.24-.53,11.88,5.05,8.63h0Z"/>
  <path class="st0" d="M12.04,168.38c19.54-11.38,39.08-22.76,58.62-34.15,31.13-18.13,62.25-36.26,93.38-54.39,7.12-4.14,14.23-8.29,21.35-12.43,5.56-3.24.53-11.88-5.05-8.63-19.54,11.38-39.08,22.76-58.62,34.15-31.13,18.13-62.25,36.26-93.38,54.39-7.12,4.14-14.23,8.29-21.35,12.43-5.56,3.24-.53,11.88,5.05,8.63h0Z"/>
  <path class="st0" d="M12.04,116.47c19.54-11.38,39.08-22.76,58.62-34.15l93.38-54.39c7.12-4.14,14.23-8.29,21.35-12.43,5.56-3.24.53-11.88-5.05-8.63-19.54,11.38-39.08,22.76-58.62,34.15L28.34,95.4c-7.12,4.14-14.23,8.29-21.35,12.43-5.56,3.24-.53,11.88,5.05,8.63h0Z"/>
  <path class="st0" d="M6.99,213.89c25.98,14.73,51.96,29.46,77.94,44.19,3.7,2.1,7.4,4.2,11.1,6.3,5.61,3.18,10.65-5.46,5.05-8.63-25.98-14.73-51.96-29.46-77.94-44.19-3.7-2.1-7.4-4.2-11.1-6.3-5.61-3.18-10.65,5.46-5.05,8.63h0Z"/>
  <path class="st0" d="M98.56,265.06h171.01c6.43,0,6.45-10,0-10H98.56c-6.43,0-6.45,10,0,10h0Z"/>
</svg>